<?xml version="1.0" encoding="UTF-8"?>
<svg width="3000px" height="3000px" viewBox="0 0 3000 3000" version="1.1" xmlns="http://www.w3.org/2000/svg" xmlns:xlink="http://www.w3.org/1999/xlink">
    <!-- Generator: Sketch 48.2 (47327) - http://www.bohemiancoding.com/sketch -->
    <title>favicon</title>
    <desc>Created with Sketch.</desc>
    <defs></defs>
    <g id="Page-1" stroke="none" stroke-width="1" fill="none" fill-rule="evenodd">
        <g id="favicon">
            <path d="M1473.90234,704.822266 L1371.46582,765.525391 C1352.31533,732.283037 1334.06845,710.603566 1316.72461,700.486328 C1298.65811,688.92377 1275.35268,683.142578 1246.80762,683.142578 C1211.75861,683.142578 1182.67199,693.079002 1159.54688,712.952148 C1136.42176,732.463965 1124.85938,757.034032 1124.85938,786.663086 C1124.85938,827.493368 1155.21063,860.373899 1215.91406,885.305664 L1299.38086,919.451172 C1367.31089,946.912247 1416.99301,980.425095 1448.42871,1019.99072 C1479.86441,1059.55635 1495.58203,1108.06417 1495.58203,1165.51562 C1495.58203,1242.4789 1469.92799,1306.07201 1418.61914,1356.29688 C1366.94896,1406.88307 1302.81386,1432.17578 1226.21191,1432.17578 C1153.5846,1432.17578 1093.60473,1410.67697 1046.27051,1367.67871 C999.658947,1324.68045 970.572323,1264.15859 959.009766,1186.11133 L1086.91992,1157.92773 C1092.7012,1207.06861 1102.81829,1241.03311 1117.27148,1259.82227 C1143.28724,1295.95526 1181.22631,1314.02148 1231.08984,1314.02148 C1270.47481,1314.02148 1303.17467,1300.83314 1329.19043,1274.45605 C1355.20618,1248.07897 1368.21387,1214.65645 1368.21387,1174.1875 C1368.21387,1157.92765 1365.95559,1143.02302 1361.43896,1129.47314 C1356.92234,1115.92327 1349.87651,1103.45758 1340.30127,1092.07568 C1330.72603,1080.69379 1318.35066,1070.03472 1303.1748,1060.09814 C1287.99895,1050.16157 1269.93272,1040.6768 1248.97559,1031.64355 L1168.21875,998.040039 C1053.67716,949.621828 996.407227,878.802224 996.407227,785.579102 C996.407227,722.707693 1020.43531,670.134977 1068.49219,627.859375 C1116.54907,585.222443 1176.34828,563.904297 1247.8916,563.904297 C1344.36669,563.904297 1419.70285,610.876483 1473.90234,704.822266 Z M1774.16602,580.164062 L1774.16602,1084.2168 C1774.16602,1156.12145 1785.90906,1208.69417 1809.39551,1241.93652 C1844.44451,1289.9934 1893.76531,1314.02148 1957.35938,1314.02148 C2021.31477,1314.02148 2070.81623,1289.9934 2105.86523,1241.93652 C2129.35168,1209.77816 2141.09473,1157.20544 2141.09473,1084.2168 L2141.09473,580.164062 L2267.37891,580.164062 L2267.37891,1118.9043 C2267.37891,1207.0688 2239.91824,1279.69503 2184.99609,1336.78516 C2123.20868,1400.37922 2047.33053,1432.17578 1957.35938,1432.17578 C1867.38822,1432.17578 1791.69074,1400.37922 1730.26465,1336.78516 C1675.3425,1279.69503 1647.88184,1207.0688 1647.88184,1118.9043 L1647.88184,580.164062 L1774.16602,580.164062 Z M2467.91602,1417 L2467.91602,580.164062 L2593.6582,580.164062 C2649.66434,580.164062 2694.28792,584.499957 2727.53027,593.171875 C2761.13396,601.843793 2789.49793,616.477436 2812.62305,637.073242 C2836.10949,658.391708 2854.7177,684.94906 2868.44824,716.746094 C2882.54011,748.904458 2889.58594,781.423664 2889.58594,814.304688 C2889.58594,874.285456 2866.64183,925.05155 2820.75293,966.604492 C2865.19651,981.780349 2900.24499,1008.3377 2925.89941,1046.27734 C2951.91517,1083.85566 2964.92285,1127.57592 2964.92285,1177.43945 C2964.92285,1242.84017 2941.79808,1298.12282 2895.54785,1343.28906 C2867.72545,1371.11147 2836.47088,1390.44233 2801.7832,1401.28223 C2763.84356,1411.76079 2716.32939,1417 2659.23926,1417 L2467.91602,1417 Z M2594.2002,939.504883 L2633.76562,939.504883 C2680.73852,939.504883 2715.15468,929.116803 2737.01514,908.340332 C2758.8756,887.563861 2769.80566,856.941609 2769.80566,816.472656 C2769.80566,777.087694 2758.6046,747.18809 2736.20215,726.772949 C2713.79969,706.357808 2681.28049,696.150391 2638.64355,696.150391 L2594.2002,696.150391 L2594.2002,939.504883 Z M2594.2002,1298.30371 L2672.24707,1298.30371 C2729.3372,1298.30371 2771.25084,1287.10265 2797.98926,1264.7002 C2826.17299,1240.49109 2840.26465,1209.77851 2840.26465,1172.56152 C2840.26465,1136.42853 2826.71498,1106.07727 2799.61523,1081.50684 C2773.23815,1057.29773 2726.0853,1045.19336 2658.15527,1045.19336 L2594.2002,1045.19336 L2594.2002,1298.30371 Z" id="SUB" fill="#000000"></path>
            <path d="M395.999023,1620.16406 L395.999023,2161.61426 C395.999023,2226.29232 391.482467,2274.52914 382.449219,2306.32617 C373.41597,2342.45917 358.059679,2372.99109 336.379883,2397.92285 C294.104281,2447.42505 238.098981,2472.17578 168.362305,2472.17578 C115.608135,2472.17578 66.2873388,2458.44545 20.3984375,2430.98438 L82.1855469,2323.12793 C112.898591,2343.72374 141.62389,2354.02148 168.362305,2354.02148 C205.940618,2354.02148 231.955982,2339.74917 246.40918,2311.2041 C261.585037,2282.65904 269.172852,2232.79625 269.172852,2161.61426 L269.172852,1620.16406 L395.999023,1620.16406 Z M722.820312,2117.1709 L722.820312,2457 L596.536133,2457 L596.536133,1620.16406 L739.62207,1620.16406 C809.720077,1620.16406 862.654118,1625.04194 898.425781,1634.79785 C934.558774,1644.55376 966.355331,1662.98131 993.816406,1690.08105 C1041.87329,1737.05395 1065.90137,1796.31117 1065.90137,1867.85449 C1065.90137,1944.45644 1040.24733,2005.15896 988.938477,2049.96387 C937.629626,2094.76878 868.435982,2117.1709 781.355469,2117.1709 L722.820312,2117.1709 Z M722.820312,2000.10059 L769.973633,2000.10059 C885.960541,2000.10059 943.953125,1955.47701 943.953125,1866.22852 C943.953125,1779.87066 884.153918,1736.69238 764.553711,1736.69238 L722.820312,1736.69238 L722.820312,2000.10059 Z M1154.24609,2034.78809 C1154.24609,1916.99453 1197.42437,1815.82366 1283.78223,1731.27246 C1369.77875,1646.72126 1473.11756,1604.44629 1593.80176,1604.44629 C1713.04064,1604.44629 1815.29547,1647.08258 1900.56934,1732.35645 C1986.20453,1817.63031 2029.02148,1920.06581 2029.02148,2039.66602 C2029.02148,2159.98888 1986.02387,2262.06306 1900.02734,2345.8916 C1813.66949,2430.08148 1709.42737,2472.17578 1587.29785,2472.17578 C1479.2602,2472.17578 1382.24457,2434.77869 1296.24805,2359.9834 C1201.5796,2277.23884 1154.24609,2168.84149 1154.24609,2034.78809 Z M1281.61426,2036.41406 C1281.61426,2128.91453 1312.68817,2204.97333 1374.83691,2264.59277 C1436.62433,2324.21221 1507.98592,2354.02148 1588.92383,2354.02148 C1676.727,2354.02148 1750.79853,2323.67023 1811.14063,2262.9668 C1871.48272,2201.54071 1901.65332,2126.74653 1901.65332,2038.58203 C1901.65332,1949.33354 1871.84405,1874.53936 1812.22461,1814.19727 C1752.9665,1753.49384 1679.61762,1723.14258 1592.17578,1723.14258 C1505.09527,1723.14258 1431.56573,1753.49384 1371.58496,1814.19727 C1311.60419,1874.17803 1281.61426,1948.24956 1281.61426,2036.41406 Z M2314.10938,2117.1709 L2314.10938,2457 L2187.8252,2457 L2187.8252,1620.16406 L2330.91113,1620.16406 C2401.00914,1620.16406 2453.94318,1625.04194 2489.71484,1634.79785 C2525.84784,1644.55376 2557.64439,1662.98131 2585.10547,1690.08105 C2633.16235,1737.05395 2657.19043,1796.31117 2657.19043,1867.85449 C2657.19043,1944.45644 2631.53639,2005.15896 2580.22754,2049.96387 C2528.91869,2094.76878 2459.72504,2117.1709 2372.64453,2117.1709 L2314.10938,2117.1709 Z M2314.10938,2000.10059 L2361.2627,2000.10059 C2477.2496,2000.10059 2535.24219,1955.47701 2535.24219,1866.22852 C2535.24219,1779.87066 2475.44298,1736.69238 2355.84277,1736.69238 L2314.10938,1736.69238 L2314.10938,2000.10059 Z" id="JPOP" fill="#000000"></path>
            <path d="M560,2587 L3226,2587" id="Line" stroke="#FF4E4E" stroke-width="80" stroke-linecap="square"></path>
            <path d="M-269,447 L2268,447" id="Line" stroke="#FF4E4E" stroke-width="80" stroke-linecap="square"></path>
        </g>
    </g>
</svg>